PathFileType	4	(X/Y/Z)	 s08c0102.trc
DataRate	CameraRate	NumFrames	NumMarkers	Units	OrigDataRate	OrigDataStartFrame	OrigNumFrames
200	200	4	50	mm	200	1501	2000
Frame#	Time	racr			lacr			c7			jug			rlel			rdr			llel			ldr			s2			lic			ric			lasi			rasi			rpsi			lpsi			rgt			lgt			rth1			rth2			rth3			rth4			rlfc			rmfc			rsh1			rsh2			rsh3			rsh4			rlmal			rmmal			rcal			rtoe			rmt5			lth1			lth2			lth4			lth3			llfc			lmfc			llmal			lmmal			lcal			lmt5			lsh1			lsh2			lsh3			lsh4			ltoe			SBIKE			LBIKE			RBIKE			
		X1	Y1	Z1	X2	Y2	Z2	X3	Y3	Z3	X4	Y4	Z4	X5	Y5	Z5	X6	Y6	Z6	X7	Y7	Z7	X8	Y8	Z8	X9	Y9	Z9	X10	Y10	Z10	X11	Y11	Z11	X12	Y12	Z12	X13	Y13	Z13	X14	Y14	Z14	X15	Y15	Z15	X16	Y16	Z16	X17	Y17	Z17	X18	Y18	Z18	X19	Y19	Z19	X20	Y20	Z20	X21	Y21	Z21	X22	Y22	Z22	X23	Y23	Z23	X24	Y24	Z24	X25	Y25	Z25	X26	Y26	Z26	X27	Y27	Z27	X28	Y28	Z28	X29	Y29	Z29	X30	Y30	Z30	X31	Y31	Z31	X32	Y32	Z32	X33	Y33	Z33	X34	Y34	Z34	X35	Y35	Z35	X36	Y36	Z36	X37	Y37	Z37	X38	Y38	Z38	X39	Y39	Z39	X40	Y40	Z40	X41	Y41	Z41	X42	Y42	Z42	X43	Y43	Z43	X44	Y44	Z44	X45	Y45	Z45	X46	Y46	Z46	X47	Y47	Z47	X48	Y48	Z48	X49	Y49	Z49	X50	Y50	Z50	
1501	7.5050	571.571191	1326.720546	-88.994203	552.381477	1375.425426	-382.355024	530.117166	1415.186304	-228.627858	502.949667	1259.702477	-251.750431	598.805585	1092.186410	43.097819	800.577070	889.317060	-32.810107	584.977699	1108.070496	-475.234637	803.573163	922.044914	-406.721938	-36.570096	1219.949432	-200.691974	111.743127	1232.980428	-353.244043	134.952162	1207.671452	-43.636124	144.339043	1193.518897	-313.947027	151.957091	1151.923451	-77.850395	-1.275393	1254.933406	-142.415871	-8.396005	1271.092393	-234.585781	47.376509	1087.924172	-20.981870	75.086000	1136.202111	-393.925480	161.731109	958.910893	-17.901656	232.609512	904.936177	-19.584310	265.850358	824.654249	-27.080545	260.558242	926.790421	-29.587761	324.019058	726.287914	-40.912055	307.756159	719.457809	-150.051181	229.648006	632.527231	-14.994957	204.976955	549.909505	-36.763717	140.318938	491.564321	-46.417220	230.473567	538.306056	-65.749689	68.104593	396.934806	-58.242582	92.498505	409.568122	-144.668017	-7.085568	413.792002	-108.053556	229.369282	233.368862	-97.121853	137.469176	259.789273	-33.757492	175.587151	1046.461064	-403.458305	256.500853	1013.742813	-400.050571	277.584038	1040.872335	-386.032011	311.221754	943.654566	-403.537419	395.788595	841.464059	-381.384312	399.734687	811.774782	-274.620313	312.375501	426.761067	-393.610085	335.070874	448.163345	-306.378919	244.786284	388.722875	-357.300636	459.787609	369.854899	-414.251870	373.639939	714.621888	-408.893013	376.066553	629.597121	-393.720316	338.491492	550.464917	-397.861435	398.146901	628.148750	-361.267135	533.214493	415.081677	-344.894498	-141.933800	941.339984	-220.441530	18.136742	84.231954	-425.620072	11.052680	80.054290	-27.328016	
1502	7.5100	571.874807	1324.451891	-88.550119	553.675773	1374.083040	-382.265035	531.222334	1413.642719	-228.150278	503.179016	1258.391862	-251.792814	598.116356	1090.581337	44.203834	800.506660	889.159239	-32.357893	585.126249	1106.480380	-475.817209	803.393532	921.003070	-406.113903	-35.274323	1218.338396	-200.820642	113.087884	1230.779415	-354.954407	135.790584	1206.490567	-45.147034	145.376424	1190.991843	-315.681098	152.883624	1151.391729	-79.397892	-0.345940	1253.678471	-143.806421	-7.291076	1269.144237	-235.958765	49.208507	1086.598546	-21.747617	75.303242	1132.055578	-395.077403	165.663297	960.720426	-17.954129	237.672452	908.106952	-19.845908	272.546667	828.502406	-26.924258	265.070222	930.542711	-30.633397	331.699903	731.484437	-40.716597	313.292766	725.096652	-152.209823	234.999809	639.725824	-14.840668	208.333680	557.531005	-36.508335	142.560330	500.717111	-46.139573	233.910926	545.421842	-65.180272	68.352883	407.936841	-57.928119	92.699305	420.231068	-144.398582	-6.578709	426.231218	-107.692990	226.579697	241.714226	-97.148291	135.221196	269.633903	-33.689570	175.025143	1040.058565	-404.479237	255.201408	1006.033971	-401.150666	276.855766	1033.017705	-387.808605	308.667170	934.969569	-404.069327	392.568120	832.066319	-382.257293	395.935037	802.677844	-275.362878	314.865036	416.338460	-394.029941	336.778416	437.519501	-309.126564	247.502825	378.555042	-357.617614	462.569912	359.283458	-414.110926	371.846042	704.793001	-409.121683	375.882300	619.991683	-394.381055	339.359721	540.375695	-398.480548	397.546418	619.000934	-361.554808	536.160067	404.374217	-344.654611	-141.988811	941.327412	-220.388489	18.153250	84.238946	-425.613248	11.083356	80.230433	-27.148512	
1503	7.5150	571.988662	1322.463040	-87.944675	555.922191	1373.469167	-384.244593	532.162492	1412.372732	-227.804576	504.515980	1257.182388	-252.302210	597.355225	1089.187011	45.354811	800.294575	889.086613	-31.959029	585.002675	1105.193272	-476.568611	803.052639	920.254767	-405.886725	-33.504753	1216.474864	-201.750395	114.651471	1228.530183	-357.036299	136.666085	1205.623208	-46.691809	146.570809	1188.343213	-317.544835	153.954762	1150.972572	-80.893119	0.648421	1252.492336	-145.198157	-5.952951	1267.085518	-237.723373	51.120152	1085.389498	-22.690105	75.698250	1127.604095	-396.345036	169.655862	962.688679	-18.129016	242.687164	911.574376	-20.250499	279.266952	832.765800	-26.830766	269.621421	934.662498	-31.414138	339.462377	736.875436	-40.479835	320.738008	729.817615	-151.921639	240.660327	647.154443	-14.671048	212.189323	565.404063	-36.140005	145.202254	510.018371	-45.779204	237.708482	552.616107	-64.437045	69.247039	419.035677	-57.512887	94.499474	430.193100	-144.335303	-5.442618	438.721906	-107.254825	224.442361	250.143832	-97.242614	133.651461	279.549719	-33.703439	174.329422	1033.436155	-405.534512	253.920874	998.071842	-402.238002	276.096679	1024.900540	-389.633105	306.145578	926.138441	-404.534805	388.956757	823.203530	-382.698810	392.541960	794.400155	-275.601318	316.869241	406.081105	-394.279476	340.116416	428.295226	-306.573536	249.763015	368.599972	-357.743805	464.796487	348.454577	-413.927212	369.517301	695.004733	-409.427520	374.974616	610.313149	-394.833195	339.671976	530.150194	-398.766006	396.604351	609.622785	-361.748589	538.404133	393.415383	-344.424959	-142.060557	941.351956	-220.376940	18.158260	84.215794	-425.608998	10.987528	80.053554	-27.319254	
1504	7.5200	572.024002	1320.729592	-87.175187	557.112702	1372.214193	-384.113370	533.053476	1411.418985	-227.724810	504.372536	1256.446249	-252.415775	596.617261	1088.074796	46.499690	800.063347	889.107036	-31.555145	584.810490	1104.104631	-477.386887	802.625340	919.184279	-405.610506	-32.097839	1214.931768	-203.264717	116.300006	1226.303462	-359.347816	137.590707	1204.891421	-48.285040	147.926467	1185.582519	-319.542113	155.016050	1150.745471	-82.555208	1.766289	1251.426052	-146.996929	-4.513758	1265.110822	-239.604989	53.125457	1084.508855	-23.675627	76.200359	1123.006689	-397.630363	173.608755	964.302731	-18.741444	247.817750	915.266368	-20.554787	285.799329	836.972762	-26.765730	273.976262	938.740582	-32.588332	347.374145	742.653600	-40.813696	327.788186	734.546268	-152.157313	246.650532	654.709428	-14.349182	214.991394	572.859230	-37.049377	148.395692	519.502239	-45.447992	241.813036	560.087692	-63.992676	70.788567	430.127037	-57.040077	96.204670	440.768509	-143.816399	-3.606932	451.264205	-106.676041	222.963479	258.841239	-97.305666	132.717758	289.635796	-33.669579	173.664643	1026.710746	-406.614175	252.654316	989.988387	-403.293600	275.252023	1016.747951	-391.809854	303.390789	916.912835	-404.231246	385.406771	813.765001	-383.130447	388.817270	785.567054	-275.923352	318.335410	395.914789	-394.424561	341.584810	418.180774	-306.903393	251.476453	358.966353	-357.799090	466.495451	337.394929	-413.704231	367.054374	685.342455	-410.132027	373.657117	600.712182	-395.477794	339.653501	519.856697	-398.891742	395.376387	600.228960	-362.123225	540.144461	381.998838	-344.215694	-142.081325	941.327194	-220.379911	18.135314	84.193973	-425.606755	11.061068	80.185291	-27.143259	
